<svg width="484" height="322" viewBox="0 0 484 322" fill="none" xmlns="http://www.w3.org/2000/svg">
<g clip-path="url(#clip0_33515_805)">
<path d="M160.677 51.2393L157.723 55.7148H154.874L153.925 56.9935H156.879L150.443 66.4924C149.072 68.5018 150.021 70.3285 152.659 70.3285C154.558 70.3285 156.562 69.1412 158.567 67.4971C158.567 70.9679 164.158 71.6072 167.64 67.9538H168.378C170.277 67.9538 173.231 66.9491 174.919 65.3051C174.708 64.9397 174.181 64.483 173.759 64.3917L173.548 64.5744C172.071 65.9444 170.383 66.5838 168.695 66.5838L171.649 62.1996C173.548 59.3682 171.754 56.6282 168.8 56.6282C166.374 56.6282 164.475 57.4502 162.576 60.1903L160.993 62.565L159.727 64.483L159.516 64.6657C157.195 66.9491 154.98 68.7758 153.608 68.7758C152.87 68.7758 152.553 68.3191 153.292 67.3144L160.149 57.0848H162.787L163.525 55.7148H160.888L163.842 51.2393H160.677ZM168.589 58.3635C169.644 58.4549 170.066 59.5509 169.011 61.1036L166.69 64.483H166.585C165.53 64.483 164.686 65.2137 164.686 66.1271C164.686 66.4924 164.791 66.7664 165.002 67.0404V67.1318C163.525 69.3238 159.833 68.9585 161.732 66.1271L164.158 62.565L165.741 60.3729C166.69 58.9116 167.851 58.3635 168.589 58.3635ZM191.799 51.2393L188.845 55.7148H185.997L185.047 56.9935H188.001L181.46 66.4924C180.089 68.5018 181.038 70.3285 183.676 70.3285C184.942 70.3285 186.313 69.7805 187.79 68.8671L186.946 70.0545H190.111L194.964 62.839C199.817 57.5415 202.033 58.2722 200.661 60.2816L196.547 66.4011C195.175 68.4105 196.125 70.2372 198.762 70.2372C200.661 70.2372 202.771 68.9585 204.776 67.3144C204.881 69.0498 206.569 70.2372 209.101 70.2372C212.688 70.2372 216.275 67.8625 218.913 65.2137C218.702 64.8484 218.174 64.3917 217.752 64.3004L217.541 64.483C215.22 66.7664 212.266 68.5931 210.051 68.5931C208.046 68.5931 206.886 67.5884 208.363 65.3051L208.679 64.8484C210.684 65.5791 214.587 65.2137 217.014 61.743L217.436 61.1036C219.124 58.5462 217.541 56.7195 214.904 56.7195C212.372 56.7195 210.262 57.9069 208.89 59.8249L205.831 64.3917L205.62 64.5744C203.299 66.8578 201.083 68.6845 199.712 68.6845C198.973 68.6845 198.657 68.2278 199.29 67.2231L203.932 60.3729C205.303 58.2722 204.037 56.8108 202.244 56.8108C200.872 56.8108 199.395 57.4502 197.813 58.9116L202.877 51.3307H199.712L190.85 64.483L190.639 64.6657C188.318 66.9491 186.102 68.7758 184.731 68.7758C183.992 68.7758 183.676 68.3191 184.414 67.3144L191.272 57.0848H193.909L194.859 55.8061H192.221L195.175 51.3307L191.799 51.2393ZM214.271 58.7289C215.326 58.6375 215.853 59.5509 214.798 61.1036L214.376 61.743C212.899 63.935 210.789 63.935 209.629 63.5697L211.633 60.4643C212.372 59.3682 213.427 58.8202 214.271 58.7289ZM261.007 53.7968C259.214 55.1668 259.003 56.7195 260.163 57.9982L260.48 58.2722C259.108 60.0076 257.209 62.291 255.099 64.3917L254.888 64.5744C253.411 65.9444 251.723 66.5838 250.035 66.5838L252.989 62.1996C254.888 59.3682 253.095 56.6282 250.141 56.6282C247.714 56.6282 245.815 57.4502 243.916 60.1903L242.334 62.565L241.068 64.483L240.857 64.6657C238.219 67.2231 236.004 68.9585 233.472 69.8718L240.646 59.4596H238.747C238.747 58.3635 237.375 56.8108 235.371 56.8108C233.683 56.8108 231.256 57.9982 229.885 59.9162L225.454 66.4924C224.082 68.5018 225.032 70.3285 227.669 70.3285C228.513 70.3285 229.674 69.9632 230.729 69.4152L229.885 70.6939C225.559 71.7899 222.922 73.3426 222.922 75.352C222.922 78.0007 227.564 78.5487 229.885 75.1693L232.311 71.6072C234.843 70.9679 237.375 69.6892 239.907 67.4971C239.907 70.9679 245.499 71.6986 248.98 67.9538H249.719C251.618 67.9538 254.572 66.9491 256.26 65.3051C257.737 63.7523 259.003 62.3823 261.535 59.4596L261.957 59.9162C262.379 60.3729 262.484 60.9209 262.168 61.469L258.792 66.4924C257.42 68.5018 258.37 70.3285 261.007 70.3285C262.59 70.3285 264.383 69.4152 266.071 68.1365C265.966 69.4152 267.021 70.3285 268.814 70.3285C269.658 70.3285 270.819 69.9632 271.874 69.4152L271.03 70.6939C266.704 71.7899 264.067 73.3426 264.067 75.352C264.067 78.0007 268.709 78.5487 271.03 75.1693L273.456 71.6072C276.094 70.8765 278.626 69.5978 281.263 67.4058C281.369 69.1412 283.057 70.3285 285.589 70.3285C288.226 70.3285 290.758 69.0498 292.974 67.4058C292.868 70.9679 298.565 71.6986 302.047 67.9538H302.785C303.735 67.9538 305.106 67.6798 306.372 67.1318C305.528 69.0498 306.267 70.3285 308.166 70.3285C309.959 70.3285 311.858 68.9585 313.441 67.6798C313.124 69.1412 314.179 70.3285 316.184 70.3285C318.821 70.3285 321.881 67.9538 324.518 65.3051C326.312 63.4783 327.894 61.6516 329.055 60.3729C327.789 63.2043 328.422 68.3191 325.468 68.3191C324.413 68.3191 323.991 67.3144 323.991 67.3144L321.986 68.2278C321.986 68.2278 322.619 70.4199 325.468 70.4199C325.784 70.4199 326.101 70.4199 326.312 70.3285H326.417C329.688 69.9632 332.853 67.7711 335.279 65.3964C335.068 64.9397 334.541 64.5744 334.119 64.483L333.908 64.6657C332.747 65.7617 331.481 66.7664 330.11 67.5884C331.165 65.031 330.954 61.0123 332.853 57.5415L330.426 56.4455C329.16 57.9982 326.206 61.5603 323.358 64.3917L323.147 64.5744C320.826 66.8578 318.61 68.6845 317.239 68.6845C316.5 68.6845 316.184 68.2278 316.922 67.2231L323.674 56.9935H320.509L314.812 65.4877C312.386 67.4058 310.487 68.4105 309.959 68.2278C309.115 67.9538 309.959 66.9491 310.381 66.3097L316.606 56.9935H313.441L308.482 64.3917L308.271 64.5744C306.794 65.9444 305.106 66.5838 303.418 66.5838L306.372 62.1996C308.271 59.3682 306.478 56.6282 303.524 56.6282C301.097 56.6282 299.198 57.4502 297.299 60.1903L295.717 62.565L294.451 64.483L294.24 64.6657C291.919 66.9491 288.965 68.7758 286.749 68.7758C284.745 68.7758 283.584 67.7711 285.061 65.4877L285.378 65.031C287.382 65.7617 291.286 65.3964 293.712 61.9256L294.134 61.2863C295.822 58.7289 294.24 56.9022 291.602 56.9022C289.07 56.9022 286.96 58.0895 285.589 60.0076L282.529 64.5744L282.318 64.757C279.681 67.3144 277.465 69.0498 274.933 69.9632L282.107 59.5509H280.208C280.208 58.4549 278.837 56.9022 276.832 56.9022C275.144 56.9022 272.718 58.0895 271.346 60.0076L268.287 64.483L268.076 64.6657C265.755 66.9491 263.539 68.7758 262.168 68.7758C261.429 68.7758 261.113 68.3191 261.851 67.3144L265.016 62.565C266.071 60.9209 265.649 59.9162 264.594 58.9116L262.801 57.0848C262.379 56.6282 262.379 56.0801 263.012 55.5321L261.007 53.7968ZM250.141 58.3635C251.196 58.4549 251.723 59.5509 250.563 61.1036L248.242 64.483H248.136C247.081 64.483 246.237 65.2137 246.237 66.1271C246.237 66.4924 246.343 66.7664 246.554 67.0404V67.1318C245.077 69.3238 241.384 68.9585 243.283 66.1271L245.71 62.565L247.292 60.3729C248.242 58.9116 249.297 58.3635 250.141 58.3635ZM303.102 58.3635C304.157 58.4549 304.684 59.5509 303.524 61.1036L301.203 64.483H301.097C300.042 64.483 299.198 65.2137 299.198 66.1271C299.198 66.4924 299.304 66.7664 299.515 67.0404V67.1318C298.038 69.3238 294.345 68.9585 296.244 66.1271L298.671 62.565L300.253 60.3729C301.097 58.9116 302.258 58.3635 303.102 58.3635ZM290.758 58.7289C291.813 58.6375 292.341 59.5509 291.286 61.1036L290.864 61.743C289.281 63.935 287.277 63.935 286.116 63.5697L288.121 60.4643C288.859 59.3682 289.914 58.8202 290.758 58.7289ZM235.476 58.9116C236.531 58.9116 237.27 59.7336 236.32 61.1036L233.894 64.757C231.995 67.4058 229.99 68.6845 228.724 68.6845C227.986 68.6845 227.669 68.2278 228.408 67.2231L232.839 60.5556C233.577 59.4596 234.632 58.9116 235.476 58.9116ZM276.516 58.9116C277.571 58.9116 278.309 59.7336 277.36 61.1036L274.933 64.757C273.034 67.4058 271.03 68.6845 269.764 68.6845C269.025 68.6845 268.709 68.2278 269.447 67.2231L273.878 60.5556C274.617 59.4596 275.672 58.9116 276.516 58.9116ZM228.724 72.5206L227.247 74.7126C226.614 75.7173 225.454 75.5347 225.454 74.804C225.454 74.1646 226.298 73.3426 228.724 72.5206ZM269.764 72.5206L268.287 74.7126C267.654 75.7173 266.493 75.5347 266.493 74.804C266.599 74.1646 267.337 73.3426 269.764 72.5206ZM106.555 61.9256H137.045V63.661H106.555V61.9256ZM346.146 61.9256H376.635V63.661H346.146V61.9256Z" fill="#766458"/>
<path d="M340.449 34.1596V41.1924H318.505V0.365341H340.449V7.30686H326.523V17.1711H337.6V24.204H326.523V34.1596H340.449ZM305.845 0.365341H313.863V41.1924H305.845V21.0986L302.68 31.5108H294.873L291.708 21.0986V41.1924H283.69V0.365341H291.708L298.882 20.0939L305.845 0.365341ZM272.19 7.30686H266.388V34.0682H272.19V7.30686ZM275.355 0.365341C277.993 0.365341 280.314 2.28339 280.314 4.65812V36.8996C280.314 39.2744 277.993 41.1924 275.355 41.1924H263.328C260.585 41.1924 258.37 39.183 258.37 36.8996V4.65812C258.37 2.28339 260.585 0.365341 263.328 0.365341H275.355ZM245.815 26.122L253.939 24.478V36.8996C253.939 39.2744 251.618 41.1924 248.98 41.1924H236.953C234.21 41.1924 231.995 39.183 231.995 36.8996V4.65812C231.995 2.28339 234.21 0.365341 236.953 0.365341H248.98C251.618 0.365341 253.939 2.28339 253.939 4.65812V12.9697L245.815 14.6137V7.30686H240.013V34.0682H245.815V26.122ZM228.091 34.1596V41.1924H208.89V0.365341H216.908V34.1596H228.091ZM205.514 34.1596V41.1924H183.57V0.365341H205.514V7.30686H191.588V17.1711H202.666V24.204H191.588V34.1596H205.514ZM171.543 0.365341H179.667L178.295 41.1924H162.998L160.888 24.2953L158.778 41.1924H143.48L142.425 0.365341H150.443L151.076 34.1596H151.92L156.984 0.365341H165.002L170.172 34.1596H171.016L171.543 0.365341Z" fill="#81B3D3"/>
<path d="M401.322 307.098L428.119 239.509H454.705L481.819 307.098H460.508L456.604 294.859H426.431L422.422 307.098H401.322ZM438.986 259.512L431.073 281.889H452.279L444.366 259.512C443.944 258.416 443.522 257.32 443.1 256.224C442.784 255.036 442.467 253.94 442.256 252.753C442.045 252.296 441.94 251.931 441.94 251.566C441.834 251.109 441.729 250.744 441.729 250.378C441.623 250.744 441.518 251.109 441.412 251.566C441.307 251.931 441.201 252.296 441.201 252.753C441.096 252.936 441.096 253.027 441.096 253.21C441.096 253.301 441.096 253.392 440.99 253.484C440.779 254.488 440.463 255.584 440.146 256.589C439.619 257.503 439.302 258.507 438.986 259.512ZM314.812 307.098V239.509H335.385L364.819 274.217C365.558 275.222 366.296 276.318 366.929 277.414C367.668 278.51 368.406 279.606 369.039 280.702L370.516 283.442C371.044 284.355 371.466 285.269 371.993 286.091C371.888 285.36 371.782 284.629 371.677 283.899C371.571 283.168 371.466 282.437 371.466 281.706C371.255 280.245 371.149 278.784 371.149 277.322C371.044 275.77 371.044 274.308 371.044 272.756V239.601H391.511V307.189H371.044L341.398 272.299C340.554 271.477 339.816 270.472 339.077 269.285C338.339 268.097 337.6 266.819 336.967 265.54C336.545 264.627 336.018 263.805 335.49 262.891C335.068 262.069 334.752 261.156 334.224 260.334C334.646 262.526 334.963 264.718 335.174 267.001C335.385 269.285 335.49 271.568 335.49 273.76V307.098H314.812ZM221.972 256.955C225.77 250.926 230.94 246.36 237.692 243.163C244.444 239.966 251.407 238.413 258.686 238.413C259.635 238.413 260.691 238.413 261.64 238.505C262.695 238.596 263.75 238.687 264.7 238.687C267.759 239.053 270.713 239.692 273.667 240.605C276.727 241.519 279.575 242.706 282.213 244.167C288.015 247.456 292.552 251.748 295.717 257.229C298.882 262.617 300.464 268.189 300.464 274.126C300.464 274.856 300.464 275.587 300.359 276.318C300.359 277.048 300.253 277.688 300.148 278.418C299.937 279.971 299.62 281.432 299.198 282.894C298.776 284.355 298.249 285.725 297.616 287.095C294.134 293.945 288.859 299.334 281.58 303.079C274.3 306.824 266.704 308.742 258.686 308.742C258.159 308.742 257.526 308.742 256.998 308.651H255.416C252.567 308.468 249.824 308.011 247.081 307.372C244.338 306.732 241.701 305.819 239.274 304.723C232.417 301.618 227.036 297.234 223.133 291.479C219.229 285.725 217.225 279.697 217.225 273.486C217.225 272.573 217.225 271.66 217.33 270.746C217.436 269.833 217.541 268.828 217.858 267.915C218.28 266.088 218.807 264.17 219.546 262.435C219.968 260.425 220.917 258.69 221.972 256.955ZM277.676 281.25C277.887 280.519 278.098 279.788 278.309 279.058C278.52 278.236 278.731 277.505 278.837 276.683C278.942 276.226 278.942 275.678 278.942 275.222C279.048 274.765 279.048 274.308 279.048 273.852C279.048 273.395 279.048 273.03 278.942 272.573V271.294C278.52 268.28 277.465 265.357 275.777 262.526C274.089 259.695 271.663 257.503 268.709 255.95C267.865 255.584 267.126 255.31 266.282 255.036C265.438 254.762 264.699 254.488 263.855 254.306C263.012 254.123 262.273 254.032 261.429 254.032C260.585 253.849 259.846 253.849 259.003 253.849C254.888 253.849 250.985 254.945 247.503 257.229C244.021 259.512 241.49 262.526 240.118 266.271L239.907 266.727V267.184C239.696 267.823 239.485 268.554 239.274 269.193C239.063 269.833 238.958 270.472 238.747 271.203L238.536 272.664V274.856C238.536 275.039 238.536 275.313 238.641 275.587C238.852 279.332 240.224 282.894 242.545 286.273C244.971 289.561 248.347 291.753 252.567 292.849L254.044 293.306C254.572 293.397 255.099 293.489 255.627 293.489L257.104 293.671H258.581C262.906 293.671 266.81 292.575 270.186 290.383C273.667 288.009 276.199 284.995 277.676 281.25ZM191.061 300.796C187.263 303.079 183.043 304.632 178.612 305.454C174.181 306.276 169.538 306.824 165.002 307.006C163.736 307.098 162.365 307.098 161.099 307.098H135.99V239.509H162.47C163.736 239.509 165.002 239.509 166.268 239.601C170.699 239.783 175.025 240.331 179.245 241.153C183.57 241.975 187.579 243.619 191.166 245.812C195.703 248.552 199.29 252.205 201.822 256.772C204.354 261.339 205.831 265.997 206.147 270.746C206.253 271.203 206.253 271.568 206.253 272.025V274.674C206.042 279.697 204.67 284.538 202.138 289.196C199.606 293.854 195.808 297.782 191.061 300.796ZM156.879 291.936C157.09 291.936 157.406 291.936 157.617 292.027H158.461C158.777 292.027 159.094 292.027 159.305 292.119H162.576C163.525 292.027 164.369 291.936 165.108 291.936C167.218 291.753 169.327 291.479 171.332 291.023C173.337 290.566 175.236 289.744 176.818 288.831C179.456 287.187 181.355 284.995 182.62 282.254C183.887 279.423 184.625 276.5 184.625 273.486V272.664C184.625 272.39 184.625 272.116 184.52 271.842C184.309 269.193 183.57 266.545 182.304 264.079C181.038 261.521 179.245 259.512 176.924 258.051C175.236 256.863 173.231 256.041 171.121 255.584C169.011 255.128 166.901 254.945 164.791 254.854H156.879V291.936ZM72.584 307.098V239.509H120.481V254.214H93.473V266.088H118.793V280.519H93.473V291.936H120.376V307.098H72.584ZM9.917 285.36C10.0225 285.451 10.0225 285.543 10.0225 285.543C10.128 285.543 10.2335 285.543 10.2335 285.634C12.449 287.735 14.981 289.744 17.724 291.571C20.467 293.306 23.7375 294.311 27.3245 294.402C27.43 294.402 27.5355 294.402 27.5355 294.493H27.852C27.9575 294.493 28.063 294.493 28.063 294.585H29.4345C29.8565 294.493 30.173 294.402 30.4895 294.402C31.7555 294.219 33.0215 293.763 34.182 293.123C35.448 292.484 36.3975 291.753 37.0305 290.749L37.2415 290.292L37.4525 289.835C37.6635 289.379 37.769 288.922 37.769 288.465C37.8745 288.009 37.8745 287.643 37.8745 287.278C37.8745 285.36 36.925 283.807 34.9205 282.529C33.127 281.25 31.017 280.154 28.8015 279.423C27.9575 279.149 27.1135 278.966 26.2695 278.784C25.531 278.601 24.687 278.418 23.9485 278.236H23.7375C23.632 278.144 23.5265 278.144 23.5265 278.144C19.5175 277.322 15.7195 275.952 12.238 274.126C8.7565 272.208 6.33 269.467 4.9585 265.997C4.7475 265.266 4.431 264.535 4.22 263.805C4.009 262.983 3.9035 262.161 3.9035 261.339C3.9035 261.247 3.9035 260.973 3.9035 260.791V258.233C4.009 257.685 4.1145 257.137 4.22 256.498C4.431 255.036 4.853 253.666 5.486 252.296C6.0135 250.926 6.752 249.648 7.7015 248.46C10.339 244.716 13.715 242.067 17.724 240.423C21.8385 238.779 26.2695 237.957 30.7005 237.957C31.7555 237.957 32.8105 238.048 33.8655 238.139C35.026 238.231 36.1865 238.322 37.347 238.413C40.301 238.87 43.255 239.601 45.998 240.514C48.952 241.519 51.5895 242.706 54.1215 243.985L47.3695 257.046C45.154 255.676 42.833 254.397 40.4065 253.301C37.98 252.205 35.3425 251.748 32.494 251.748H31.5445C29.6455 251.931 27.9575 252.662 26.2695 253.94C24.687 255.128 23.843 256.406 23.843 257.868V258.507C23.9485 258.69 24.054 258.964 24.1595 259.147C24.3705 259.603 24.5815 260.06 25.0035 260.517C25.4255 260.973 25.8475 261.339 26.375 261.704C27.3245 262.343 28.5905 262.983 30.2785 263.531C31.9665 263.987 33.76 264.535 35.659 264.992C37.2415 265.357 38.7185 265.723 40.1955 266.088C41.6725 266.362 42.9385 266.636 43.888 266.91C48.4245 268.28 51.906 270.655 54.227 274.034C56.548 277.322 57.7085 280.793 57.814 284.447V284.995C57.814 285.451 57.814 285.817 57.7085 286.273V287.461C57.181 291.114 55.8095 294.676 53.594 297.964C51.3785 301.252 48.4245 303.81 44.6265 305.636C43.255 306.184 41.778 306.732 40.301 307.098C38.824 307.463 37.347 307.737 35.87 308.011C34.7095 308.194 33.4435 308.377 32.1775 308.468C31.017 308.651 29.8565 308.651 28.5905 308.651H27.1135C22.2605 308.468 17.4075 307.555 12.66 305.91C7.9125 304.175 3.6925 301.8 0 298.878L9.917 285.36ZM370.305 419.715C370.305 419.441 370.411 419.167 370.516 418.893C370.622 418.619 370.833 418.345 371.044 418.162C371.255 417.979 371.571 417.797 371.888 417.614C372.204 417.523 372.626 417.431 373.048 417.431C373.576 417.431 373.998 417.523 374.42 417.705C374.842 417.888 375.264 418.071 375.58 418.345C375.791 418.619 376.002 418.893 376.213 419.258C376.319 419.623 376.424 419.989 376.424 420.445C376.424 421.267 376.213 421.907 375.897 422.638C375.58 423.277 375.158 423.916 374.525 424.373C374.209 424.647 373.998 424.83 373.681 425.012C373.365 425.195 373.048 425.378 372.732 425.469C372.415 425.56 372.204 425.743 371.993 425.834C371.888 425.926 371.782 425.926 371.571 426.017L370.094 424.19C370.305 424.099 370.622 424.008 370.938 423.825C371.255 423.734 371.571 423.551 371.888 423.368C372.204 423.186 372.415 422.912 372.626 422.638C372.837 422.364 372.943 422.09 372.943 421.724C372.31 421.724 371.677 421.541 371.149 421.176C370.516 420.902 370.305 420.445 370.305 419.715ZM378.534 419.715C378.534 419.441 378.64 419.167 378.745 418.893C378.851 418.619 379.062 418.345 379.273 418.162C379.484 417.979 379.8 417.797 380.117 417.614C380.433 417.523 380.855 417.431 381.277 417.431C381.805 417.431 382.227 417.523 382.649 417.705C383.071 417.888 383.493 418.071 383.809 418.345C384.02 418.619 384.231 418.893 384.442 419.258C384.548 419.623 384.653 419.989 384.653 420.445C384.653 421.176 384.548 421.907 384.126 422.638C383.809 423.277 383.387 423.916 382.754 424.373C382.438 424.647 382.227 424.83 381.91 425.012C381.594 425.195 381.277 425.378 380.961 425.469C380.644 425.56 380.433 425.743 380.222 425.834C380.117 425.926 380.011 425.926 379.8 426.017L378.429 424.19C378.64 424.099 378.956 424.008 379.273 423.825C379.589 423.734 379.906 423.551 380.222 423.368C380.539 423.186 380.75 422.912 380.961 422.638C381.172 422.364 381.277 422.09 381.277 421.724C380.644 421.724 380.011 421.541 379.484 421.176C378.745 420.902 378.534 420.445 378.534 419.715ZM99.381 366.101C99.381 366.375 99.2755 366.649 99.17 366.923C99.0645 367.197 98.8535 367.471 98.6425 367.653C98.115 368.11 97.3765 368.384 96.638 368.384C96.216 368.384 95.6885 368.293 95.2665 368.11C94.8445 367.927 94.4225 367.745 94.106 367.471C93.7895 367.197 93.5785 366.831 93.473 366.557C93.3675 366.192 93.262 365.827 93.262 365.37C93.262 364.548 93.473 363.909 93.7895 363.178C94.106 362.539 94.528 361.899 95.161 361.443C95.4775 361.169 95.6885 360.986 96.005 360.803C96.3215 360.621 96.638 360.438 96.9545 360.347C97.271 360.255 97.482 360.073 97.693 359.981C97.904 359.89 98.0095 359.89 98.115 359.799L99.4865 361.625C99.17 361.717 98.8535 361.808 98.6425 361.991C98.326 362.082 98.0095 362.265 97.693 362.447C97.3765 362.63 97.1655 362.904 96.9545 363.178C96.7435 363.452 96.638 363.726 96.638 364.091C97.3765 364.091 97.904 364.274 98.4315 364.639C99.17 365.005 99.381 365.461 99.381 366.101ZM91.152 366.101C91.152 366.649 90.941 367.197 90.4135 367.653C90.2025 367.836 89.886 368.019 89.5695 368.201C89.253 368.293 88.831 368.384 88.409 368.384C87.987 368.384 87.4595 368.293 87.0375 368.11C86.6155 367.927 86.1935 367.745 85.877 367.471C85.5605 367.197 85.3495 366.831 85.244 366.557C85.1385 366.192 85.033 365.827 85.033 365.37C85.033 364.548 85.244 363.909 85.5605 363.178C85.877 362.539 86.299 361.899 86.932 361.443C87.143 361.26 87.4595 360.986 87.776 360.803C88.0925 360.621 88.409 360.438 88.7255 360.347C89.042 360.255 89.253 360.073 89.464 359.981C89.675 359.89 89.7805 359.89 89.886 359.799L91.2575 361.625C91.0465 361.717 90.73 361.808 90.4135 361.991C90.097 362.082 89.7805 362.265 89.464 362.447C89.1475 362.63 88.9365 362.904 88.7255 363.178C88.5145 363.452 88.409 363.726 88.409 364.091C89.1475 364.091 89.675 364.274 90.2025 364.639C90.8355 365.005 91.152 365.461 91.152 366.101ZM349.944 418.071H353.953L366.402 399.256H362.393L349.944 418.071ZM349.838 419.441C348.572 419.441 347.517 420.354 347.517 421.45C347.517 422.546 348.467 423.46 349.838 423.46C351.104 423.46 352.159 422.638 352.159 421.45C352.159 420.263 351.104 419.441 349.838 419.441ZM321.986 414.417L323.147 412.682C327.789 407.11 330.848 408.663 329.477 410.764L327.578 413.595C326.417 415.331 322.83 416.609 321.986 414.417ZM348.467 417.066C348.256 416.518 347.517 415.97 346.99 415.879L346.673 416.153C345.302 417.614 343.614 418.801 341.926 419.897C343.192 416.609 342.875 411.586 345.407 407.11L342.453 405.74C340.765 407.658 337.178 412.225 333.591 415.879L333.275 416.153C330.426 419.075 327.578 421.359 325.89 421.359C325.046 421.359 324.202 420.628 324.202 419.075V417.614C327.05 417.888 330.004 416.335 331.798 413.504L332.853 411.951C336.545 406.471 330.532 404.644 326.417 407.841L332.114 399.347H328.105L316.711 416.427C316.5 416.244 316.289 416.153 315.973 415.97L315.656 416.244C312.808 419.167 309.115 421.45 306.267 421.45C303.84 421.45 302.363 420.08 304.157 417.34L308.271 411.129C310.592 407.75 314.601 408.298 312.28 411.86L311.753 412.682H315.023L315.551 411.86C317.661 408.663 315.656 406.288 312.386 406.288C309.115 406.288 306.583 407.75 304.895 410.307L300.992 416.153C300.886 416.153 300.781 416.061 300.781 416.061L300.464 416.335C297.616 419.258 294.767 421.542 293.079 421.542C292.235 421.542 291.708 420.993 292.657 419.623L301.203 406.745H297.194L290.125 417.431C287.066 419.806 284.745 421.176 284.006 420.811C283.057 420.445 284.006 419.167 284.534 418.436L292.341 406.654H288.332L280.63 418.253C279.786 418.893 278.098 419.532 277.254 419.989C278.52 416.701 278.204 411.677 280.736 407.202L277.782 405.832C276.094 407.75 266.915 418.345 263.328 421.998C263.645 422.455 264.278 422.82 264.805 423.186C267.021 420.902 274.617 412.499 276.094 410.855C274.511 414.417 275.355 420.902 271.557 420.902C270.186 420.902 269.658 419.623 269.658 419.623L267.126 420.719C267.126 420.719 267.865 423.46 271.452 423.46C271.874 423.46 272.19 423.46 272.612 423.368H272.718C274.722 423.094 277.571 422.364 279.47 421.176C279.47 422.546 280.419 423.46 282.107 423.46C284.323 423.46 286.749 421.724 288.648 420.171C288.226 421.998 289.492 423.46 292.024 423.46C294.451 423.46 297.299 421.724 299.831 419.441C299.831 421.724 301.941 423.46 305.212 423.46C308.482 423.46 311.647 421.907 314.39 419.806L312.175 423.186H316.184L320.72 416.335V419.075C320.72 421.998 321.353 423.551 324.624 423.551C327.894 423.551 331.692 420.537 334.963 417.157C337.178 414.874 339.183 412.499 340.66 410.855C339.077 414.417 339.921 420.902 336.123 420.902C334.752 420.902 334.224 419.623 334.224 419.623L331.692 420.719C331.692 420.719 332.431 423.46 336.018 423.46C336.44 423.46 336.756 423.46 337.178 423.368H337.284C341.504 422.912 345.513 420.08 348.467 417.066ZM227.564 416.061H227.353C226.087 416.061 225.032 416.975 225.032 418.162C225.032 418.619 225.137 418.984 225.454 419.349V419.441C223.555 422.181 219.018 421.724 221.339 418.071L224.399 413.504L226.298 410.673C229.146 406.562 232.944 408.206 230.518 411.769L227.564 416.061ZM200.767 429.031C199.923 430.31 198.551 430.127 198.551 429.214C198.551 428.3 199.501 427.296 202.56 426.291L200.767 429.031ZM170.383 416.427C167.956 419.715 165.635 421.267 163.947 421.267C163.103 421.267 162.576 420.719 163.525 419.349L169.117 410.947C171.227 407.75 175.552 408.572 173.548 411.677L170.383 416.427ZM157.723 403C158.883 401.265 160.255 400.443 161.309 400.443C162.786 400.443 163.525 401.265 163.525 402.544C163.525 405.74 158.883 412.408 152.764 411.586H151.92L157.723 403ZM255.627 415.879L255.31 416.153C252.462 419.075 249.613 421.359 247.925 421.359C247.081 421.359 246.554 420.811 247.503 419.441L253.2 410.673C254.888 408.024 253.306 406.197 251.09 406.197C249.402 406.197 247.609 407.019 245.604 408.755L247.081 406.471H243.072L236.637 416.061C236.426 415.97 236.32 415.879 236.109 415.787L235.793 416.061C233.999 417.797 231.784 418.619 229.779 418.619L233.577 413.047C236.004 409.394 233.788 406.014 229.99 406.014C226.931 406.014 224.504 407.11 222.289 410.49L220.284 413.413L218.596 415.97C218.491 415.879 218.385 415.879 218.28 415.787L217.963 416.061C214.693 419.349 211.844 421.45 208.679 422.638L219.651 406.471H215.642L208.574 417.066C205.514 419.532 203.088 420.902 202.349 420.628C201.4 420.263 202.349 418.984 202.877 418.253L210.684 406.471H206.675L200.345 415.97C200.239 415.879 200.134 415.879 200.028 415.787L199.712 416.061C196.863 418.984 194.015 421.267 192.327 421.267C191.483 421.267 190.955 420.719 191.904 419.349L197.602 410.581C199.29 407.932 197.707 406.106 195.492 406.106C193.804 406.106 192.01 406.928 190.005 408.663L191.482 406.38H187.473L181.144 415.879C181.038 415.787 180.933 415.787 180.722 415.696L180.405 415.97C177.557 418.893 174.708 421.176 173.02 421.176C172.176 421.176 171.648 420.628 172.598 419.258L179.034 409.485H176.818C176.923 408.024 175.236 406.014 172.598 406.014C170.488 406.014 167.428 407.476 165.74 410.033L161.626 416.153C161.31 415.97 160.993 415.787 160.782 415.696L160.465 415.97C157.617 418.893 155.402 421.176 151.393 421.176C148.65 421.176 147.067 418.801 149.388 415.331L150.549 413.595C151.287 413.687 152.026 413.778 152.764 413.778C156.984 413.778 161.837 411.86 165.002 407.11C166.163 405.375 166.585 403.822 166.585 402.452C166.585 399.347 164.264 397.338 161.309 397.338C159.094 397.338 156.562 398.708 154.769 401.356L148.544 410.581C146.223 409.485 144.957 407.567 144.957 405.649C144.957 404.096 145.801 402.452 147.489 401.265L146.223 399.256C143.374 400.991 142.109 403.366 142.109 405.649C142.109 408.389 143.902 411.038 147.173 412.499L146.012 414.326C143.164 418.527 144.852 423.186 150.443 423.186C154.874 423.186 156.879 421.45 159.622 419.167C158.778 421.359 160.044 423.186 162.787 423.186C164.369 423.186 166.374 422.272 168.273 420.902C168.484 422.272 169.644 423.186 171.754 423.186C173.653 423.186 175.763 422.181 177.768 420.628L176.29 422.82H180.299L186.419 413.595C192.538 407.019 195.281 407.841 193.487 410.399L188.318 418.162C186.63 420.719 187.79 423.094 191.061 423.094C193.171 423.094 195.597 421.816 197.813 419.989C197.285 421.907 198.34 423.094 200.345 423.094C202.243 423.094 204.459 421.724 206.253 420.354L204.037 423.642C198.657 425.012 195.281 426.93 195.281 429.579C195.281 432.867 201.189 433.598 204.037 429.305L207.097 424.738C210.473 423.825 213.743 421.998 217.119 419.075C216.592 423.916 223.977 425.012 228.408 420.08H229.252C230.729 420.08 232.628 419.623 234.421 418.71L231.784 422.729H235.793L241.912 413.504C248.031 406.928 250.774 407.75 248.98 410.307L243.811 418.071C242.123 420.628 243.283 423.003 246.554 423.003C249.824 423.003 253.622 419.989 256.893 416.609C256.787 416.609 256.154 416.061 255.627 415.879ZM380.75 383.363C378.323 386.743 375.897 388.387 374.209 388.387C373.365 388.387 372.837 387.839 373.787 386.469L379.378 378.066C381.488 374.869 385.814 375.691 383.809 378.796L380.75 383.363ZM342.559 383.546C340.132 386.834 337.811 388.387 336.123 388.387C335.279 388.387 334.752 387.839 335.701 386.469L341.293 378.066C343.403 374.869 347.728 375.691 345.724 378.796L342.559 383.546ZM300.464 396.15C299.62 397.429 298.249 397.246 298.249 396.333C298.249 395.419 299.198 394.415 302.258 393.41L300.464 396.15ZM308.904 370.119C310.065 368.384 311.436 367.562 312.491 367.562C318.821 367.562 314.074 380.714 303.946 378.705H303.102L308.904 370.119ZM390.878 382.998L390.561 383.272C387.713 386.195 384.864 388.478 383.176 388.478C382.332 388.478 381.805 387.93 382.754 386.56L396.258 366.375H392.249L386.341 375.143C385.603 374.138 384.337 373.316 382.649 373.316C380.539 373.316 377.479 374.778 375.791 377.335L371.888 383.18C371.782 383.18 371.677 383.089 371.677 383.089L371.36 383.363C368.512 386.286 366.085 388.569 364.292 388.569C363.448 388.569 362.92 388.021 363.87 386.651L369.672 377.883C371.36 375.234 369.778 373.408 367.562 373.408C365.874 373.408 364.081 374.23 362.076 375.965L363.553 373.682H359.544L353.214 383.18C353.109 383.089 353.003 383.089 352.792 382.998L352.476 383.272C349.627 386.195 346.779 388.478 345.091 388.478C344.247 388.478 343.719 387.93 344.669 386.56L351.104 376.787H348.889C348.994 375.326 347.306 373.316 344.669 373.316C342.559 373.316 339.499 374.778 337.811 377.335L333.908 383.089L333.697 383.272C330.848 386.195 327.578 388.478 325.89 388.478C325.046 388.478 324.518 387.93 325.468 386.56L329.477 380.532C330.848 378.431 330.215 377.244 328.949 375.874L326.734 373.59C326.206 372.951 326.206 372.22 326.945 371.581L324.835 369.663C322.619 371.398 322.408 373.408 323.78 374.96L324.096 375.326C322.303 377.518 319.982 380.44 317.344 383.089C317.45 383.18 317.555 383.272 317.661 383.363C314.39 386.651 311.542 388.752 308.482 389.939L313.546 382.45H309.537L309.115 383.089C307.005 386.286 304.579 388.569 301.519 388.569C298.776 388.569 298.354 386.195 300.675 382.724L301.836 380.988C302.574 381.08 303.313 381.171 304.051 381.171C318.188 381.171 325.046 364.731 312.597 364.731C310.381 364.731 307.849 366.101 306.056 368.749L299.831 377.974C297.51 376.878 296.244 374.96 296.244 373.042C296.244 371.49 297.088 369.845 298.776 368.658L297.51 366.649C294.662 368.384 293.396 370.759 293.396 373.042C293.396 375.782 295.189 378.431 298.46 379.892L297.299 381.719C294.451 385.921 294.978 390.579 300.675 390.579C302.363 390.579 303.735 390.122 305.001 389.483L303.946 391.035C298.565 392.497 295.189 394.323 295.189 396.972C295.189 400.26 301.097 400.991 303.946 396.698L307.005 392.131C311.12 391.035 315.234 388.569 319.56 384.185C319.454 384.094 319.454 384.003 319.349 383.82C321.142 381.993 322.619 380.258 325.679 376.787L326.206 377.335C326.734 377.883 326.945 378.614 326.417 379.253L322.197 385.555C320.509 388.113 321.67 390.487 324.94 390.487C326.945 390.487 329.477 389.391 331.692 387.747C331.692 389.3 332.853 390.487 335.174 390.487C336.756 390.487 338.761 389.574 340.66 388.204C340.871 389.574 342.031 390.487 344.141 390.487C346.04 390.487 348.15 389.483 350.155 387.93L348.678 390.122H352.687L358.806 380.897C364.925 374.321 367.668 375.143 365.874 377.7L360.705 385.464C359.017 388.021 360.177 390.396 363.448 390.396C365.558 390.396 367.457 389.117 369.778 387.382C369.567 389.117 370.833 390.396 373.259 390.396C374.842 390.396 376.846 389.483 378.745 388.113C378.956 389.483 380.117 390.396 382.227 390.396C385.497 390.396 389.295 387.382 392.566 384.003C392.038 383.729 391.405 383.18 390.878 382.998ZM272.401 378.157C274.722 374.778 278.731 375.326 276.41 378.888L275.883 379.71C273.984 382.541 271.346 382.45 269.869 381.993L272.401 378.157ZM269.236 390.579C273.773 390.579 278.204 387.565 281.58 384.185C281.263 383.728 280.63 383.18 280.103 382.998L279.786 383.272C276.938 386.195 273.245 388.478 270.397 388.478C267.97 388.478 266.493 387.108 268.287 384.368L268.709 383.729C271.241 384.642 276.094 384.185 279.048 379.71L279.575 378.888C281.685 375.691 279.681 373.316 276.41 373.316C273.245 373.316 270.608 374.778 268.92 377.335L265.016 383.089C265.016 383.089 264.911 383.089 264.911 382.998L264.594 383.272C261.746 386.195 258.897 388.478 257.209 388.478C256.365 388.478 255.838 387.93 256.787 386.56L262.484 377.792C264.172 375.143 262.59 373.316 260.374 373.316C258.686 373.316 256.787 374.138 254.783 375.965L261.113 366.375H257.104L245.815 383.272C245.71 383.18 245.499 383.089 245.393 382.998L245.077 383.272C242.228 386.195 239.38 388.478 237.692 388.478C236.848 388.478 236.32 387.93 237.27 386.56L245.815 373.682H249.086L250.246 372.038H246.976L250.774 366.375H246.765L242.967 372.038H239.38L238.219 373.682H241.806L233.788 385.738C232.1 388.295 233.261 390.67 236.531 390.67C238.536 390.67 240.646 389.574 242.756 387.93L241.173 390.305H245.182L251.196 381.171C257.315 374.504 260.057 375.326 258.37 377.883L253.2 385.647C251.512 388.204 252.673 390.579 255.943 390.579C258.37 390.579 261.007 388.935 263.645 386.743C263.855 388.935 265.966 390.579 269.236 390.579ZM134.724 378.157C137.045 374.778 141.054 375.326 138.733 378.888L138.205 379.71C136.306 382.541 133.669 382.45 132.191 381.993L134.724 378.157ZM159.094 386.56L164.686 378.157C166.796 374.96 171.121 375.782 169.117 378.888L166.057 383.637C163.631 386.925 161.31 388.478 159.622 388.478C158.672 388.387 158.145 387.93 159.094 386.56ZM216.064 378.157C218.385 374.778 222.394 375.326 220.073 378.888L219.546 379.71C217.647 382.541 215.115 382.45 213.532 381.993L216.064 378.157ZM155.085 386.834C154.452 388.843 155.718 390.579 158.355 390.579C159.938 390.579 161.943 389.665 163.842 388.295C164.053 389.665 165.213 390.579 167.323 390.579C169.433 390.579 171.754 389.3 174.075 387.565C173.653 389.391 174.602 390.579 176.607 390.579C178.822 390.579 181.249 388.843 183.148 387.291C182.726 389.117 183.992 390.579 186.524 390.579C189.795 390.579 193.592 387.565 196.863 384.185C196.863 384.185 196.758 384.094 196.758 384.003C198.973 381.81 200.872 379.436 202.244 377.792C200.661 381.354 201.505 387.839 197.707 387.839C196.336 387.839 195.808 386.56 195.808 386.56L193.276 387.656C193.276 387.656 194.015 390.487 197.602 390.487C198.024 390.487 198.34 390.487 198.762 390.396H198.868C201.822 390.031 204.67 388.478 207.202 386.56C207.308 388.843 209.312 390.487 212.583 390.487C217.119 390.487 221.55 387.473 224.926 384.094C224.61 383.637 223.977 383.089 223.449 382.906L223.133 383.18C220.284 386.103 216.592 388.387 213.743 388.387C211.317 388.387 209.84 387.017 211.633 384.277L212.055 383.637C214.587 384.551 219.44 384.094 222.394 379.618L222.922 378.796C225.032 375.6 223.027 373.225 219.757 373.225C216.486 373.225 213.954 374.686 212.266 377.244L208.363 382.998H208.257L207.941 383.272C206.569 384.733 204.881 385.921 203.193 387.017C204.459 383.729 204.143 378.705 206.675 374.23L203.721 372.86C202.033 374.778 198.446 379.344 194.859 382.998L194.964 383.089L194.859 383.272C192.01 386.195 189.161 388.478 187.473 388.478C186.63 388.478 186.102 387.93 187.052 386.56L195.597 373.682H191.588L184.52 384.368C181.46 386.743 179.139 388.113 178.4 387.747C177.451 387.382 178.4 386.103 178.928 385.373L186.735 373.59H182.726L176.396 383.089C176.29 382.998 176.185 382.998 176.079 382.906L175.763 383.18C172.915 386.103 170.066 388.387 168.378 388.387C167.534 388.387 167.007 387.839 167.956 386.469L174.392 376.696H172.176C172.282 375.234 170.594 373.225 167.956 373.225C165.846 373.225 162.787 374.686 161.099 377.244L157.09 383.272C156.879 383.18 156.668 382.998 156.457 382.906L156.14 383.18C153.292 386.103 149.915 388.387 147.173 388.387C144.746 388.387 143.269 387.017 145.063 384.277L149.177 378.066C151.498 374.686 155.507 375.234 153.186 378.796L152.659 379.618H155.929L156.457 378.796C158.567 375.6 156.562 373.225 153.292 373.225C150.021 373.225 147.911 374.686 146.223 377.244L142.214 383.089C142.109 382.998 142.003 382.998 141.898 382.906L141.581 383.18C138.733 386.103 135.357 388.387 132.508 388.387C130.082 388.387 128.605 387.017 130.398 384.277L130.82 383.637C133.352 384.551 138.205 384.094 141.159 379.618L141.687 378.796C143.797 375.6 141.792 373.225 138.522 373.225C135.251 373.225 132.719 374.686 131.031 377.244L126.811 383.454C124.279 387.108 126.495 390.487 131.137 390.487C134.618 390.487 137.467 388.661 140.421 386.286C140.315 388.661 142.425 390.487 145.801 390.487C149.388 390.579 152.237 388.935 155.085 386.834ZM116.156 374.047L119.426 369.297C122.38 364.913 126.073 367.471 124.068 370.759C122.486 373.225 120.27 374.047 116.156 374.047ZM111.83 389.848C109.404 389.848 107.61 389.391 106.133 388.661C106.872 387.93 107.505 387.108 108.138 386.195L114.89 376.148L115.945 376.239C125.229 377.883 121.536 389.848 111.83 389.848ZM121.747 375.691C129.765 373.316 130.398 364.639 122.486 364.639C120.27 364.639 117.738 366.009 115.945 368.658L105.184 384.733C104.762 385.464 104.234 386.103 103.601 386.651C100.858 383.363 101.597 378.431 105.5 376.33L103.918 374.595C95.583 379.162 98.0095 392.497 111.936 392.497C123.857 392.497 129.343 380.075 121.747 375.691Z" fill="white"/>
</g>
<defs>
<clipPath id="clip0_33515_805">
<rect width="483.19" height="321.502" fill="white"/>
</clipPath>
</defs>
</svg>
