<svg width="484" height="322" viewBox="0 0 484 322" fill="none" xmlns="http://www.w3.org/2000/svg">
<g clip-path="url(#clip0_33515_805)">
<path d="M160.677 51.2393L157.723 55.7148H154.874L153.925 56.9935H156.879L150.443 66.4924C149.072 68.5018 150.021 70.3285 152.659 70.3285C154.558 70.3285 156.562 69.1412 158.567 67.4971C158.567 70.9679 164.158 71.6072 167.64 67.9538H168.378C170.277 67.9538 173.231 66.9491 174.919 65.3051C174.708 64.9397 174.181 64.483 173.759 64.3917L173.548 64.5744C172.071 65.9444 170.383 66.5838 168.695 66.5838L171.649 62.1996C173.548 59.3682 171.754 56.6282 168.8 56.6282C166.374 56.6282 164.475 57.4502 162.576 60.1903L160.993 62.565L159.727 64.483L159.516 64.6657C157.195 66.9491 154.98 68.7758 153.608 68.7758C152.87 68.7758 152.553 68.3191 153.292 67.3144L160.149 57.0848H162.787L163.525 55.7148H160.888L163.842 51.2393H160.677ZM168.589 58.3635C169.644 58.4549 170.066 59.5509 169.011 61.1036L166.69 64.483H166.585C165.53 64.483 164.686 65.2137 164.686 66.1271C164.686 66.4924 164.791 66.7664 165.002 67.0404V67.1318C163.525 69.3238 159.833 68.9585 161.732 66.1271L164.158 62.565L165.741 60.3729C166.69 58.9116 167.851 58.3635 168.589 58.3635ZM191.799 51.2393L188.845 55.7148H185.997L185.047 56.9935H188.001L181.46 66.4924C180.089 68.5018 181.038 70.3285 183.676 70.3285C184.942 70.3285 186.313 69.7805 187.79 68.8671L186.946 70.0545H190.111L194.964 62.839C199.817 57.5415 202.033 58.2722 200.661 60.2816L196.547 66.4011C195.175 68.4105 196.125 70.2372 198.762 70.2372C200.661 70.2372 202.771 68.9585 204.776 67.3144C204.881 69.0498 206.569 70.2372 209.101 70.2372C212.688 70.2372 216.275 67.8625 218.913 65.2137C218.702 64.8484 218.174 64.3917 217.752 64.3004L217.541 64.483C215.22 66.7664 212.266 68.5931 210.051 68.5931C208.046 68.5931 206.886 67.5884 208.363 65.3051L208.679 64.8484C210.684 65.5791 214.587 65.2137 217.014 61.743L217.436 61.1036C219.124 58.5462 217.541 56.7195 214.904 56.7195C212.372 56.7195 210.262 57.9069 208.89 59.8249L205.831 64.3917L205.62 64.5744C203.299 66.8578 201.083 68.6845 199.712 68.6845C198.973 68.6845 198.657 68.2278 199.29 67.2231L203.932 60.3729C205.303 58.2722 204.037 56.8108 202.244 56.8108C200.872 56.8108 199.395 57.4502 197.813 58.9116L202.877 51.3307H199.712L190.85 64.483L190.639 64.6657C188.318 66.9491 186.102 68.7758 184.731 68.7758C183.992 68.7758 183.676 68.3191 184.414 67.3144L191.272 57.0848H193.909L194.859 55.8061H192.221L195.175 51.3307L191.799 51.2393ZM214.271 58.7289C215.326 58.6375 215.853 59.5509 214.798 61.1036L214.376 61.743C212.899 63.935 210.789 63.935 209.629 63.5697L211.633 60.4643C212.372 59.3682 213.427 58.8202 214.271 58.7289ZM261.007 53.7968C259.214 55.1668 259.003 56.7195 260.163 57.9982L260.48 58.2722C259.108 60.0076 257.209 62.291 255.099 64.3917L254.888 64.5744C253.411 65.9444 251.723 66.5838 250.035 66.5838L252.989 62.1996C254.888 59.3682 253.095 56.6282 250.141 56.6282C247.714 56.6282 245.815 57.4502 243.916 60.1903L242.334 62.565L241.068 64.483L240.857 64.6657C238.219 67.2231 236.004 68.9585 233.472 69.8718L240.646 59.4596H238.747C238.747 58.3635 237.375 56.8108 235.371 56.8108C233.683 56.8108 231.256 57.9982 229.885 59.9162L225.454 66.4924C224.082 68.5018 225.032 70.3285 227.669 70.3285C228.513 70.3285 229.674 69.9632 230.729 69.4152L229.885 70.6939C225.559 71.7899 222.922 73.3426 222.922 75.352C222.922 78.0007 227.564 78.5487 229.885 75.1693L232.311 71.6072C234.843 70.9679 237.375 69.6892 239.907 67.4971C239.907 70.9679 245.499 71.6986 248.98 67.9538H249.719C251.618 67.9538 254.572 66.9491 256.26 65.3051C257.737 63.7523 259.003 62.3823 261.535 59.4596L261.957 59.9162C262.379 60.3729 262.484 60.9209 262.168 61.469L258.792 66.4924C257.42 68.5018 258.37 70.3285 261.007 70.3285C262.59 70.3285 264.383 69.4152 266.071 68.1365C265.966 69.4152 267.021 70.3285 268.814 70.3285C269.658 70.3285 270.819 69.9632 271.874 69.4152L271.03 70.6939C266.704 71.7899 264.067 73.3426 264.067 75.352C264.067 78.0007 268.709 78.5487 271.03 75.1693L273.456 71.6072C276.094 70.8765 278.626 69.5978 281.263 67.4058C281.369 69.1412 283.057 70.3285 285.589 70.3285C288.226 70.3285 290.758 69.0498 292.974 67.4058C292.868 70.9679 298.565 71.6986 302.047 67.9538H302.785C303.735 67.9538 305.106 67.6798 306.372 67.1318C305.528 69.0498 306.267 70.3285 308.166 70.3285C309.959 70.3285 311.858 68.9585 313.441 67.6798C313.124 69.1412 314.179 70.3285 316.184 70.3285C318.821 70.3285 321.881 67.9538 324.518 65.3051C326.312 63.4783 327.894 61.6516 329.055 60.3729C327.789 63.2043 328.422 68.3191 325.468 68.3191C324.413 68.3191 323.991 67.3144 323.991 67.3144L321.986 68.2278C321.986 68.2278 322.619 70.4199 325.468 70.4199C325.784 70.4199 326.101 70.4199 326.312 70.3285H326.417C329.688 69.9632 332.853 67.7711 335.279 65.3964C335.068 64.9397 334.541 64.5744 334.119 64.483L333.908 64.6657C332.747 65.7617 331.481 66.7664 330.11 67.5884C331.165 65.031 330.954 61.0123 332.853 57.5415L330.426 56.4455C329.16 57.9982 326.206 61.5603 323.358 64.3917L323.147 64.5744C320.826 66.8578 318.61 68.6845 317.239 68.6845C316.5 68.6845 316.184 68.2278 316.922 67.2231L323.674 56.9935H320.509L314.812 65.4877C312.386 67.4058 310.487 68.4105 309.959 68.2278C309.115 67.9538 309.959 66.9491 310.381 66.3097L316.606 56.9935H313.441L308.482 64.3917L308.271 64.5744C306.794 65.9444 305.106 66.5838 303.418 66.5838L306.372 62.1996C308.271 59.3682 306.478 56.6282 303.524 56.6282C301.097 56.6282 299.198 57.4502 297.299 60.1903L295.717 62.565L294.451 64.483L294.24 64.6657C291.919 66.9491 288.965 68.7758 286.749 68.7758C284.745 68.7758 283.584 67.7711 285.061 65.4877L285.378 65.031C287.382 65.7617 291.286 65.3964 293.712 61.9256L294.134 61.2863C295.822 58.7289 294.24 56.9022 291.602 56.9022C289.07 56.9022 286.96 58.0895 285.589 60.0076L282.529 64.5744L282.318 64.757C279.681 67.3144 277.465 69.0498 274.933 69.9632L282.107 59.5509H280.208C280.208 58.4549 278.837 56.9022 276.832 56.9022C275.144 56.9022 272.718 58.0895 271.346 60.0076L268.287 64.483L268.076 64.6657C265.755 66.9491 263.539 68.7758 262.168 68.7758C261.429 68.7758 261.113 68.3191 261.851 67.3144L265.016 62.565C266.071 60.9209 265.649 59.9162 264.594 58.9116L262.801 57.0848C262.379 56.6282 262.379 56.0801 263.012 55.5321L261.007 53.7968ZM250.141 58.3635C251.196 58.4549 251.723 59.5509 250.563 61.1036L248.242 64.483H248.136C247.081 64.483 246.237 65.2137 246.237 66.1271C246.237 66.4924 246.343 66.7664 246.554 67.0404V67.1318C245.077 69.3238 241.384 68.9585 243.283 66.1271L245.71 62.565L247.292 60.3729C248.242 58.9116 249.297 58.3635 250.141 58.3635ZM303.102 58.3635C304.157 58.4549 304.684 59.5509 303.524 61.1036L301.203 64.483H301.097C300.042 64.483 299.198 65.2137 299.198 66.1271C299.198 66.4924 299.304 66.7664 299.515 67.0404V67.1318C298.038 69.3238 294.345 68.9585 296.244 66.1271L298.671 62.565L300.253 60.3729C301.097 58.9116 302.258 58.3635 303.102 58.3635ZM290.758 58.7289C291.813 58.6375 292.341 59.5509 291.286 61.1036L290.864 61.743C289.281 63.935 287.277 63.935 286.116 63.5697L288.121 60.4643C288.859 59.3682 289.914 58.8202 290.758 58.7289ZM235.476 58.9116C236.531 58.9116 237.27 59.7336 236.32 61.1036L233.894 64.757C231.995 67.4058 229.99 68.6845 228.724 68.6845C227.986 68.6845 227.669 68.2278 228.408 67.2231L232.839 60.5556C233.577 59.4596 234.632 58.9116 235.476 58.9116ZM276.516 58.9116C277.571 58.9116 278.309 59.7336 277.36 61.1036L274.933 64.757C273.034 67.4058 271.03 68.6845 269.764 68.6845C269.025 68.6845 268.709 68.2278 269.447 67.2231L273.878 60.5556C274.617 59.4596 275.672 58.9116 276.516 58.9116ZM228.724 72.5206L227.247 74.7126C226.614 75.7173 225.454 75.5347 225.454 74.804C225.454 74.1646 226.298 73.3426 228.724 72.5206ZM269.764 72.5206L268.287 74.7126C267.654 75.7173 266.493 75.5347 266.493 74.804C266.599 74.1646 267.337 73.3426 269.764 72.5206ZM106.555 61.9256H137.045V63.661H106.555V61.9256ZM346.146 61.9256H376.635V63.661H346.146V61.9256Z" fill="#766458"/>
<path d="M340.449 34.1596V41.1924H318.505V0.365341H340.449V7.30686H326.523V17.1711H337.6V24.204H326.523V34.1596H340.449ZM305.845 0.365341H313.863V41.1924H305.845V21.0986L302.68 31.5108H294.873L291.708 21.0986V41.1924H283.69V0.365341H291.708L298.882 20.0939L305.845 0.365341ZM272.19 7.30686H266.388V34.0682H272.19V7.30686ZM275.355 0.365341C277.993 0.365341 280.314 2.28339 280.314 4.65812V36.8996C280.314 39.2744 277.993 41.1924 275.355 41.1924H263.328C260.585 41.1924 258.37 39.183 258.37 36.8996V4.65812C258.37 2.28339 260.585 0.365341 263.328 0.365341H275.355ZM245.815 26.122L253.939 24.478V36.8996C253.939 39.2744 251.618 41.1924 248.98 41.1924H236.953C234.21 41.1924 231.995 39.183 231.995 36.8996V4.65812C231.995 2.28339 234.21 0.365341 236.953 0.365341H248.98C251.618 0.365341 253.939 2.28339 253.939 4.65812V12.9697L245.815 14.6137V7.30686H240.013V34.0682H245.815V26.122ZM228.091 34.1596V41.1924H208.89V0.365341H216.908V34.1596H228.091ZM205.514 34.1596V41.1924H183.57V0.365341H205.514V7.30686H191.588V17.1711H202.666V24.204H191.588V34.1596H205.514ZM171.543 0.365341H179.667L178.295 41.1924H162.998L160.888 24.2953L158.778 41.1924H143.48L142.425 0.365341H150.443L151.076 34.1596H151.92L156.984 0.365341H165.002L170.172 34.1596H171.016L171.543 0.365341Z" fill="#81B3D3"/>
<path d="M413.322 294.141L440.119 226.553H466.705L493.819 294.141H472.508L468.604 281.902H438.431L434.422 294.141H413.322ZM450.986 246.555L443.073 268.932H464.279L456.366 246.555C455.944 245.459 455.522 244.363 455.1 243.267C454.784 242.08 454.467 240.984 454.256 239.796C454.045 239.34 453.94 238.974 453.94 238.609C453.834 238.152 453.729 237.787 453.729 237.422C453.623 237.787 453.518 238.152 453.412 238.609C453.307 238.974 453.201 239.34 453.201 239.796C453.096 239.979 453.096 240.07 453.096 240.253C453.096 240.344 453.096 240.436 452.99 240.527C452.779 241.532 452.463 242.628 452.146 243.632C451.619 244.546 451.302 245.551 450.986 246.555ZM326.812 294.141V226.553H347.385L376.819 261.26C377.558 262.265 378.296 263.361 378.929 264.457C379.668 265.553 380.406 266.649 381.039 267.745L382.516 270.485C383.044 271.399 383.466 272.312 383.993 273.134C383.888 272.403 383.782 271.673 383.677 270.942C383.571 270.211 383.466 269.481 383.466 268.75C383.255 267.288 383.149 265.827 383.149 264.366C383.044 262.813 383.044 261.352 383.044 259.799V226.644H403.511V294.232H383.044L353.398 259.342C352.554 258.52 351.816 257.516 351.077 256.328C350.339 255.141 349.6 253.862 348.967 252.583C348.545 251.67 348.018 250.848 347.49 249.935C347.068 249.113 346.752 248.199 346.224 247.377C346.646 249.569 346.963 251.761 347.174 254.045C347.385 256.328 347.49 258.612 347.49 260.804V294.141H326.812ZM233.972 243.998C237.77 237.97 242.94 233.403 249.692 230.206C256.444 227.009 263.407 225.457 270.686 225.457C271.635 225.457 272.691 225.457 273.64 225.548C274.695 225.639 275.75 225.731 276.7 225.731C279.759 226.096 282.713 226.735 285.667 227.649C288.727 228.562 291.575 229.749 294.213 231.211C300.015 234.499 304.552 238.792 307.717 244.272C310.882 249.661 312.464 255.232 312.464 261.169C312.464 261.9 312.464 262.63 312.359 263.361C312.359 264.092 312.253 264.731 312.148 265.462C311.937 267.014 311.62 268.476 311.198 269.937C310.776 271.399 310.249 272.769 309.616 274.139C306.134 280.989 300.859 286.378 293.58 290.122C286.3 293.867 278.704 295.785 270.686 295.785C270.159 295.785 269.526 295.785 268.998 295.694H267.416C264.567 295.511 261.824 295.055 259.081 294.415C256.338 293.776 253.701 292.862 251.274 291.766C244.417 288.661 239.036 284.277 235.133 278.523C231.229 272.769 229.225 266.74 229.225 260.53C229.225 259.616 229.225 258.703 229.33 257.79C229.436 256.876 229.541 255.871 229.858 254.958C230.28 253.131 230.807 251.213 231.546 249.478C231.968 247.469 232.917 245.733 233.972 243.998ZM289.676 268.293C289.887 267.562 290.098 266.832 290.309 266.101C290.52 265.279 290.731 264.548 290.837 263.726C290.942 263.27 290.942 262.722 290.942 262.265C291.048 261.808 291.048 261.352 291.048 260.895C291.048 260.438 291.048 260.073 290.942 259.616V258.338C290.52 255.323 289.465 252.401 287.777 249.569C286.089 246.738 283.663 244.546 280.709 242.993C279.865 242.628 279.126 242.354 278.282 242.08C277.438 241.806 276.699 241.532 275.855 241.349C275.012 241.166 274.273 241.075 273.429 241.075C272.585 240.892 271.846 240.892 271.003 240.892C266.888 240.892 262.985 241.988 259.503 244.272C256.021 246.555 253.49 249.569 252.118 253.314L251.907 253.771V254.227C251.696 254.867 251.485 255.597 251.274 256.237C251.063 256.876 250.958 257.516 250.747 258.246L250.536 259.708V261.9C250.536 262.082 250.536 262.356 250.641 262.63C250.852 266.375 252.224 269.937 254.545 273.317C256.971 276.605 260.347 278.797 264.567 279.893L266.044 280.349C266.572 280.441 267.099 280.532 267.627 280.532L269.104 280.715H270.581C274.906 280.715 278.81 279.619 282.186 277.427C285.667 275.052 288.199 272.038 289.676 268.293ZM203.061 287.839C199.263 290.122 195.043 291.675 190.612 292.497C186.181 293.319 181.538 293.867 177.002 294.05C175.736 294.141 174.365 294.141 173.099 294.141H147.99V226.553H174.47C175.736 226.553 177.002 226.553 178.268 226.644C182.699 226.827 187.025 227.375 191.245 228.197C195.57 229.019 199.579 230.663 203.166 232.855C207.703 235.595 211.29 239.248 213.822 243.815C216.354 248.382 217.831 253.04 218.147 257.79C218.253 258.246 218.253 258.612 218.253 259.068V261.717C218.042 266.74 216.67 271.581 214.138 276.239C211.606 280.897 207.808 284.825 203.061 287.839ZM168.879 278.979C169.09 278.979 169.406 278.979 169.617 279.071H170.461C170.777 279.071 171.094 279.071 171.305 279.162H174.576C175.525 279.071 176.369 278.979 177.108 278.979C179.218 278.797 181.327 278.523 183.332 278.066C185.337 277.609 187.236 276.787 188.818 275.874C191.456 274.23 193.355 272.038 194.62 269.298C195.887 266.466 196.625 263.544 196.625 260.53V259.708C196.625 259.434 196.625 259.16 196.52 258.886C196.309 256.237 195.57 253.588 194.304 251.122C193.038 248.565 191.245 246.555 188.924 245.094C187.236 243.906 185.231 243.084 183.121 242.628C181.011 242.171 178.901 241.988 176.791 241.897H168.879V278.979ZM84.584 294.141V226.553H132.481V241.258H105.473V253.131H130.793V267.562H105.473V278.979H132.376V294.141H84.584ZM21.917 272.403C22.0225 272.495 22.0225 272.586 22.0225 272.586C22.128 272.586 22.2335 272.586 22.2335 272.677C24.449 274.778 26.981 276.787 29.724 278.614C32.467 280.349 35.7375 281.354 39.3245 281.445C39.43 281.445 39.5355 281.445 39.5355 281.537H39.852C39.9575 281.537 40.063 281.537 40.063 281.628H41.4345C41.8565 281.537 42.173 281.445 42.4895 281.445C43.7555 281.263 45.0215 280.806 46.182 280.167C47.448 279.527 48.3975 278.797 49.0305 277.792L49.2415 277.335L49.4525 276.879C49.6635 276.422 49.769 275.965 49.769 275.509C49.8745 275.052 49.8745 274.687 49.8745 274.321C49.8745 272.403 48.925 270.851 46.9205 269.572C45.127 268.293 43.017 267.197 40.8015 266.466C39.9575 266.192 39.1135 266.01 38.2695 265.827C37.531 265.644 36.687 265.462 35.9485 265.279H35.7375C35.632 265.188 35.5265 265.188 35.5265 265.188C31.5175 264.366 27.7195 262.996 24.238 261.169C20.7565 259.251 18.33 256.511 16.9585 253.04C16.7475 252.309 16.431 251.579 16.22 250.848C16.009 250.026 15.9035 249.204 15.9035 248.382C15.9035 248.291 15.9035 248.017 15.9035 247.834V245.277C16.009 244.729 16.1145 244.181 16.22 243.541C16.431 242.08 16.853 240.71 17.486 239.34C18.0135 237.97 18.752 236.691 19.7015 235.504C22.339 231.759 25.715 229.11 29.724 227.466C33.8385 225.822 38.2695 225 42.7005 225C43.7555 225 44.8105 225.091 45.8655 225.183C47.026 225.274 48.1865 225.365 49.347 225.457C52.301 225.913 55.255 226.644 57.998 227.557C60.952 228.562 63.5895 229.749 66.1215 231.028L59.3695 244.089C57.154 242.719 54.833 241.44 52.4065 240.344C49.98 239.248 47.3425 238.792 44.494 238.792H43.5445C41.6455 238.974 39.9575 239.705 38.2695 240.984C36.687 242.171 35.843 243.45 35.843 244.911V245.551C35.9485 245.733 36.054 246.007 36.1595 246.19C36.3705 246.647 36.5815 247.103 37.0035 247.56C37.4255 248.017 37.8475 248.382 38.375 248.747C39.3245 249.387 40.5905 250.026 42.2785 250.574C43.9665 251.031 45.76 251.579 47.659 252.035C49.2415 252.401 50.7185 252.766 52.1955 253.131C53.6725 253.405 54.9385 253.679 55.888 253.953C60.4245 255.323 63.906 257.698 66.227 261.078C68.548 264.366 69.7085 267.836 69.814 271.49V272.038C69.814 272.495 69.814 272.86 69.7085 273.317V274.504C69.181 278.157 67.8095 281.719 65.594 285.008C63.3785 288.296 60.4245 290.853 56.6265 292.68C55.255 293.228 53.778 293.776 52.301 294.141C50.824 294.506 49.347 294.78 47.87 295.055C46.7095 295.237 45.4435 295.42 44.1775 295.511C43.017 295.694 41.8565 295.694 40.5905 295.694H39.1135C34.2605 295.511 29.4075 294.598 24.66 292.954C19.9125 291.218 15.6925 288.844 12 285.921L21.917 272.403ZM382.305 406.758C382.305 406.484 382.411 406.21 382.516 405.936C382.622 405.662 382.833 405.388 383.044 405.205C383.255 405.023 383.571 404.84 383.888 404.657C384.204 404.566 384.626 404.475 385.048 404.475C385.576 404.475 385.998 404.566 386.42 404.749C386.842 404.931 387.264 405.114 387.58 405.388C387.791 405.662 388.002 405.936 388.213 406.301C388.319 406.667 388.424 407.032 388.424 407.489C388.424 408.311 388.213 408.95 387.897 409.681C387.58 410.32 387.158 410.96 386.525 411.416C386.209 411.69 385.998 411.873 385.681 412.056C385.365 412.238 385.048 412.421 384.732 412.512C384.415 412.604 384.204 412.786 383.993 412.878C383.888 412.969 383.782 412.969 383.571 413.06L382.094 411.234C382.305 411.142 382.622 411.051 382.938 410.868C383.255 410.777 383.571 410.594 383.888 410.412C384.204 410.229 384.415 409.955 384.626 409.681C384.837 409.407 384.943 409.133 384.943 408.768C384.31 408.768 383.677 408.585 383.149 408.219C382.516 407.945 382.305 407.489 382.305 406.758ZM390.534 406.758C390.534 406.484 390.64 406.21 390.745 405.936C390.851 405.662 391.062 405.388 391.273 405.205C391.484 405.023 391.8 404.84 392.117 404.657C392.433 404.566 392.855 404.475 393.277 404.475C393.805 404.475 394.227 404.566 394.649 404.749C395.071 404.931 395.493 405.114 395.809 405.388C396.02 405.662 396.231 405.936 396.442 406.301C396.548 406.667 396.653 407.032 396.653 407.489C396.653 408.219 396.548 408.95 396.126 409.681C395.809 410.32 395.387 410.96 394.754 411.416C394.438 411.69 394.227 411.873 393.91 412.056C393.594 412.238 393.277 412.421 392.961 412.512C392.644 412.604 392.433 412.786 392.222 412.878C392.117 412.969 392.011 412.969 391.8 413.06L390.429 411.234C390.64 411.142 390.956 411.051 391.273 410.868C391.589 410.777 391.906 410.594 392.222 410.412C392.539 410.229 392.75 409.955 392.961 409.681C393.172 409.407 393.277 409.133 393.277 408.768C392.644 408.768 392.011 408.585 391.484 408.219C390.745 407.945 390.534 407.489 390.534 406.758ZM111.381 353.144C111.381 353.418 111.276 353.692 111.17 353.966C111.065 354.24 110.854 354.514 110.643 354.697C110.115 355.153 109.377 355.427 108.638 355.427C108.216 355.427 107.688 355.336 107.266 355.153C106.844 354.971 106.423 354.788 106.106 354.514C105.79 354.24 105.579 353.875 105.473 353.601C105.368 353.235 105.262 352.87 105.262 352.413C105.262 351.591 105.473 350.952 105.789 350.221C106.106 349.582 106.528 348.943 107.161 348.486C107.478 348.212 107.689 348.029 108.005 347.847C108.322 347.664 108.638 347.481 108.955 347.39C109.271 347.299 109.482 347.116 109.693 347.025C109.904 346.933 110.01 346.933 110.115 346.842L111.487 348.669C111.17 348.76 110.854 348.851 110.643 349.034C110.326 349.125 110.01 349.308 109.693 349.491C109.377 349.673 109.166 349.947 108.955 350.221C108.743 350.495 108.638 350.769 108.638 351.135C109.377 351.135 109.904 351.317 110.432 351.683C111.17 352.048 111.381 352.505 111.381 353.144ZM103.152 353.144C103.152 353.692 102.941 354.24 102.413 354.697C102.202 354.879 101.886 355.062 101.569 355.245C101.253 355.336 100.831 355.427 100.409 355.427C99.987 355.427 99.4595 355.336 99.0375 355.153C98.6155 354.971 98.1935 354.788 97.877 354.514C97.5605 354.24 97.3495 353.875 97.244 353.601C97.1385 353.235 97.033 352.87 97.033 352.413C97.033 351.591 97.244 350.952 97.5605 350.221C97.877 349.582 98.299 348.943 98.932 348.486C99.143 348.303 99.4595 348.029 99.776 347.847C100.093 347.664 100.409 347.481 100.726 347.39C101.042 347.299 101.253 347.116 101.464 347.025C101.675 346.933 101.781 346.933 101.886 346.842L103.257 348.669C103.047 348.76 102.73 348.851 102.413 349.034C102.097 349.125 101.781 349.308 101.464 349.491C101.147 349.673 100.937 349.947 100.726 350.221C100.515 350.495 100.409 350.769 100.409 351.135C101.147 351.135 101.675 351.317 102.202 351.683C102.836 352.048 103.152 352.505 103.152 353.144ZM361.944 405.114H365.953L378.402 386.299H374.393L361.944 405.114ZM361.838 406.484C360.572 406.484 359.517 407.397 359.517 408.493C359.517 409.59 360.467 410.503 361.838 410.503C363.104 410.503 364.159 409.681 364.159 408.493C364.159 407.306 363.104 406.484 361.838 406.484ZM333.986 401.461L335.147 399.725C339.789 394.154 342.848 395.706 341.477 397.807L339.578 400.639C338.417 402.374 334.83 403.653 333.986 401.461ZM360.467 404.109C360.256 403.561 359.517 403.013 358.99 402.922L358.673 403.196C357.302 404.657 355.614 405.845 353.926 406.941C355.192 403.653 354.875 398.629 357.407 394.154L354.453 392.784C352.765 394.702 349.178 399.269 345.591 402.922L345.275 403.196C342.426 406.119 339.578 408.402 337.89 408.402C337.046 408.402 336.202 407.671 336.202 406.119V404.657C339.05 404.931 342.004 403.379 343.798 400.547L344.853 398.995C348.545 393.514 342.532 391.688 338.417 394.884L344.114 386.39H340.105L328.711 403.47C328.5 403.287 328.289 403.196 327.973 403.013L327.656 403.287C324.808 406.21 321.115 408.493 318.267 408.493C315.84 408.493 314.363 407.123 316.157 404.383L320.271 398.173C322.592 394.793 326.601 395.341 324.28 398.903L323.753 399.725H327.023L327.551 398.903C329.661 395.707 327.656 393.332 324.386 393.332C321.115 393.332 318.583 394.793 316.895 397.351L312.992 403.196C312.886 403.196 312.781 403.105 312.781 403.105L312.464 403.379C309.616 406.301 306.767 408.585 305.079 408.585C304.235 408.585 303.708 408.037 304.657 406.667L313.203 393.788H309.194L302.125 404.475C299.066 406.849 296.745 408.219 296.006 407.854C295.057 407.489 296.006 406.21 296.534 405.479L304.341 393.697H300.332L292.63 405.297C291.786 405.936 290.098 406.575 289.254 407.032C290.52 403.744 290.204 398.721 292.736 394.245L289.782 392.875C288.094 394.793 278.915 405.388 275.328 409.042C275.645 409.498 276.278 409.864 276.805 410.229C279.021 407.945 286.617 399.543 288.094 397.899C286.511 401.461 287.355 407.945 283.557 407.945C282.186 407.945 281.658 406.667 281.658 406.667L279.126 407.763C279.126 407.763 279.865 410.503 283.452 410.503C283.874 410.503 284.19 410.503 284.612 410.412H284.718C286.722 410.138 289.571 409.407 291.47 408.219C291.47 409.59 292.419 410.503 294.107 410.503C296.323 410.503 298.749 408.768 300.648 407.215C300.226 409.042 301.492 410.503 304.024 410.503C306.451 410.503 309.299 408.768 311.831 406.484C311.831 408.768 313.941 410.503 317.212 410.503C320.482 410.503 323.647 408.95 326.39 406.849L324.175 410.229H328.184L332.72 403.379V406.119C332.72 409.042 333.353 410.594 336.624 410.594C339.894 410.594 343.692 407.58 346.963 404.201C349.178 401.917 351.183 399.543 352.66 397.899C351.077 401.461 351.921 407.945 348.123 407.945C346.752 407.945 346.224 406.667 346.224 406.667L343.692 407.763C343.692 407.763 344.431 410.503 348.018 410.503C348.44 410.503 348.756 410.503 349.178 410.412H349.284C353.504 409.955 357.513 407.123 360.467 404.109ZM239.564 403.105H239.353C238.087 403.105 237.032 404.018 237.032 405.205C237.032 405.662 237.137 406.027 237.454 406.393V406.484C235.555 409.224 231.018 408.768 233.339 405.114L236.399 400.547L238.298 397.716C241.146 393.606 244.944 395.25 242.518 398.812L239.564 403.105ZM212.767 416.074C211.923 417.353 210.551 417.17 210.551 416.257C210.551 415.344 211.501 414.339 214.56 413.334L212.767 416.074ZM182.383 403.47C179.956 406.758 177.635 408.311 175.947 408.311C175.103 408.311 174.576 407.763 175.525 406.393L181.117 397.99C183.227 394.793 187.552 395.615 185.548 398.721L182.383 403.47ZM169.723 390.044C170.883 388.308 172.255 387.486 173.309 387.486C174.786 387.486 175.525 388.308 175.525 389.587C175.525 392.784 170.883 399.451 164.764 398.629H163.92L169.723 390.044ZM267.627 402.922L267.31 403.196C264.462 406.119 261.613 408.402 259.925 408.402C259.081 408.402 258.554 407.854 259.503 406.484L265.2 397.716C266.888 395.067 265.306 393.24 263.09 393.24C261.402 393.24 259.609 394.062 257.604 395.798L259.081 393.514H255.072L248.637 403.105C248.426 403.013 248.32 402.922 248.109 402.831L247.793 403.105C245.999 404.84 243.784 405.662 241.779 405.662L245.577 400.091C248.004 396.437 245.788 393.058 241.99 393.058C238.931 393.058 236.504 394.154 234.289 397.533L232.284 400.456L230.596 403.013C230.491 402.922 230.385 402.922 230.28 402.831L229.963 403.105C226.693 406.393 223.844 408.493 220.679 409.681L231.651 393.514H227.642L220.574 404.109C217.514 406.575 215.088 407.945 214.349 407.671C213.4 407.306 214.349 406.027 214.877 405.297L222.684 393.514H218.675L212.345 403.013C212.239 402.922 212.134 402.922 212.028 402.831L211.712 403.105C208.863 406.027 206.015 408.311 204.327 408.311C203.483 408.311 202.955 407.763 203.904 406.393L209.602 397.625C211.29 394.976 209.707 393.149 207.492 393.149C205.804 393.149 204.01 393.971 202.005 395.706L203.482 393.423H199.473L193.144 402.922C193.038 402.831 192.933 402.831 192.722 402.739L192.405 403.013C189.557 405.936 186.708 408.219 185.02 408.219C184.176 408.219 183.648 407.671 184.598 406.301L191.034 396.529H188.818C188.923 395.067 187.236 393.058 184.598 393.058C182.488 393.058 179.428 394.519 177.74 397.077L173.626 403.196C173.31 403.013 172.993 402.831 172.782 402.739L172.465 403.013C169.617 405.936 167.402 408.219 163.393 408.219C160.65 408.219 159.067 405.845 161.388 402.374L162.549 400.639C163.287 400.73 164.026 400.821 164.764 400.821C168.984 400.821 173.837 398.903 177.002 394.154C178.163 392.418 178.585 390.866 178.585 389.496C178.585 386.39 176.264 384.381 173.309 384.381C171.094 384.381 168.562 385.751 166.769 388.4L160.544 397.625C158.223 396.529 156.957 394.61 156.957 392.692C156.957 391.14 157.801 389.496 159.489 388.308L158.223 386.299C155.374 388.034 154.109 390.409 154.109 392.692C154.109 395.432 155.902 398.081 159.173 399.543L158.012 401.369C155.164 405.571 156.852 410.229 162.443 410.229C166.874 410.229 168.879 408.493 171.622 406.21C170.778 408.402 172.044 410.229 174.787 410.229C176.369 410.229 178.374 409.316 180.273 407.945C180.484 409.316 181.644 410.229 183.754 410.229C185.653 410.229 187.763 409.224 189.768 407.671L188.29 409.864H192.299L198.419 400.639C204.538 394.062 207.281 394.884 205.487 397.442L200.318 405.205C198.63 407.763 199.79 410.138 203.061 410.138C205.171 410.138 207.597 408.859 209.813 407.032C209.285 408.95 210.34 410.138 212.345 410.138C214.243 410.138 216.459 408.768 218.253 407.397L216.037 410.686C210.657 412.056 207.281 413.974 207.281 416.622C207.281 419.91 213.189 420.641 216.037 416.348L219.097 411.782C222.473 410.868 225.743 409.042 229.119 406.119C228.592 410.96 235.977 412.056 240.408 407.123H241.252C242.729 407.123 244.628 406.667 246.421 405.753L243.784 409.772H247.793L253.912 400.547C260.031 393.971 262.774 394.793 260.98 397.351L255.811 405.114C254.123 407.671 255.283 410.046 258.554 410.046C261.824 410.046 265.622 407.032 268.893 403.653C268.787 403.653 268.154 403.105 267.627 402.922ZM392.75 370.406C390.323 373.786 387.897 375.43 386.209 375.43C385.365 375.43 384.837 374.882 385.787 373.512L391.378 365.109C393.488 361.912 397.814 362.734 395.809 365.84L392.75 370.406ZM354.559 370.589C352.132 373.877 349.811 375.43 348.123 375.43C347.279 375.43 346.752 374.882 347.701 373.512L353.293 365.109C355.403 361.912 359.728 362.734 357.724 365.84L354.559 370.589ZM312.464 383.193C311.62 384.472 310.249 384.29 310.249 383.376C310.249 382.463 311.198 381.458 314.258 380.453L312.464 383.193ZM320.904 357.163C322.065 355.427 323.436 354.605 324.491 354.605C330.821 354.605 326.074 367.758 315.946 365.748H315.102L320.904 357.163ZM402.878 370.041L402.561 370.315C399.713 373.238 396.864 375.521 395.176 375.521C394.332 375.521 393.805 374.973 394.754 373.603L408.258 353.418H404.249L398.341 362.186C397.603 361.182 396.337 360.36 394.649 360.36C392.539 360.36 389.479 361.821 387.791 364.378L383.888 370.224C383.782 370.224 383.677 370.132 383.677 370.132L383.36 370.406C380.512 373.329 378.085 375.613 376.292 375.613C375.448 375.613 374.92 375.065 375.87 373.695L381.672 364.926C383.36 362.278 381.778 360.451 379.562 360.451C377.874 360.451 376.081 361.273 374.076 363.008L375.553 360.725H371.544L365.214 370.224C365.109 370.132 365.003 370.132 364.792 370.041L364.476 370.315C361.627 373.238 358.779 375.521 357.091 375.521C356.247 375.521 355.719 374.973 356.669 373.603L363.104 363.83H360.889C360.994 362.369 359.306 360.36 356.669 360.36C354.559 360.36 351.499 361.821 349.811 364.378L345.908 370.132L345.697 370.315C342.848 373.238 339.578 375.521 337.89 375.521C337.046 375.521 336.518 374.973 337.468 373.603L341.477 367.575C342.848 365.474 342.215 364.287 340.949 362.917L338.734 360.634C338.206 359.994 338.206 359.264 338.945 358.624L336.835 356.706C334.619 358.442 334.408 360.451 335.78 362.004L336.096 362.369C334.303 364.561 331.982 367.484 329.344 370.132C329.45 370.224 329.555 370.315 329.661 370.406C326.39 373.695 323.542 375.795 320.482 376.983L325.546 369.493H321.537L321.115 370.132C319.005 373.329 316.579 375.613 313.519 375.613C310.776 375.613 310.354 373.238 312.675 369.767L313.836 368.032C314.574 368.123 315.313 368.214 316.051 368.214C330.188 368.214 337.046 351.774 324.597 351.774C322.381 351.774 319.849 353.144 318.056 355.793L311.831 365.018C309.51 363.922 308.244 362.004 308.244 360.086C308.244 358.533 309.088 356.889 310.776 355.701L309.51 353.692C306.662 355.427 305.396 357.802 305.396 360.086C305.396 362.826 307.189 365.474 310.46 366.936L309.299 368.762C306.451 372.964 306.978 377.622 312.675 377.622C314.363 377.622 315.735 377.165 317.001 376.526L315.946 378.079C310.565 379.54 307.189 381.367 307.189 384.016C307.189 387.304 313.097 388.034 315.946 383.742L319.005 379.175C323.12 378.079 327.234 375.613 331.56 371.229C331.454 371.137 331.454 371.046 331.349 370.863C333.142 369.036 334.619 367.301 337.679 363.83L338.206 364.378C338.734 364.926 338.945 365.657 338.417 366.296L334.197 372.599C332.509 375.156 333.67 377.531 336.94 377.531C338.945 377.531 341.477 376.435 343.692 374.791C343.692 376.343 344.853 377.531 347.174 377.531C348.756 377.531 350.761 376.617 352.66 375.247C352.871 376.617 354.031 377.531 356.141 377.531C358.04 377.531 360.15 376.526 362.155 374.973L360.678 377.165H364.687L370.806 367.94C376.925 361.364 379.668 362.186 377.874 364.744L372.705 372.507C371.017 375.065 372.177 377.439 375.448 377.439C377.558 377.439 379.457 376.161 381.778 374.425C381.567 376.161 382.833 377.439 385.259 377.439C386.842 377.439 388.846 376.526 390.745 375.156C390.956 376.526 392.117 377.439 394.227 377.439C397.497 377.439 401.295 374.425 404.566 371.046C404.038 370.772 403.405 370.224 402.878 370.041ZM284.401 365.2C286.722 361.821 290.731 362.369 288.41 365.931L287.883 366.753C285.984 369.584 283.346 369.493 281.869 369.036L284.401 365.2ZM281.236 377.622C285.773 377.622 290.204 374.608 293.58 371.229C293.263 370.772 292.63 370.224 292.103 370.041L291.786 370.315C288.938 373.238 285.245 375.521 282.397 375.521C279.97 375.521 278.493 374.151 280.287 371.411L280.709 370.772C283.241 371.685 288.094 371.229 291.048 366.753L291.575 365.931C293.685 362.734 291.681 360.36 288.41 360.36C285.245 360.36 282.608 361.821 280.92 364.378L277.016 370.132C277.016 370.132 276.911 370.132 276.911 370.041L276.594 370.315C273.746 373.238 270.897 375.521 269.209 375.521C268.365 375.521 267.838 374.973 268.787 373.603L274.484 364.835C276.172 362.186 274.59 360.36 272.374 360.36C270.686 360.36 268.787 361.182 266.783 363.008L273.113 353.418H269.104L257.815 370.315C257.71 370.224 257.499 370.132 257.393 370.041L257.077 370.315C254.228 373.238 251.38 375.521 249.692 375.521C248.848 375.521 248.32 374.973 249.27 373.603L257.815 360.725H261.086L262.246 359.081H258.976L262.774 353.418H258.765L254.967 359.081H251.38L250.219 360.725H253.806L245.788 372.781C244.1 375.339 245.261 377.713 248.531 377.713C250.536 377.713 252.646 376.617 254.756 374.973L253.173 377.348H257.182L263.196 368.214C269.315 361.547 272.057 362.369 270.37 364.926L265.2 372.69C263.512 375.247 264.673 377.622 267.943 377.622C270.37 377.622 273.007 375.978 275.645 373.786C275.855 375.978 277.966 377.622 281.236 377.622ZM146.724 365.2C149.045 361.821 153.054 362.369 150.733 365.931L150.205 366.753C148.306 369.584 145.669 369.493 144.191 369.036L146.724 365.2ZM171.094 373.603L176.686 365.2C178.796 362.004 183.121 362.826 181.117 365.931L178.057 370.681C175.631 373.969 173.31 375.521 171.622 375.521C170.672 375.43 170.145 374.973 171.094 373.603ZM228.064 365.2C230.385 361.821 234.394 362.369 232.073 365.931L231.546 366.753C229.647 369.584 227.115 369.493 225.532 369.036L228.064 365.2ZM167.085 373.877C166.452 375.887 167.718 377.622 170.355 377.622C171.938 377.622 173.943 376.709 175.842 375.339C176.053 376.709 177.213 377.622 179.323 377.622C181.433 377.622 183.754 376.343 186.075 374.608C185.653 376.435 186.602 377.622 188.607 377.622C190.822 377.622 193.249 375.887 195.148 374.334C194.726 376.161 195.992 377.622 198.524 377.622C201.795 377.622 205.592 374.608 208.863 371.229C208.863 371.229 208.758 371.137 208.758 371.046C210.973 368.854 212.872 366.479 214.244 364.835C212.661 368.397 213.505 374.882 209.707 374.882C208.336 374.882 207.808 373.603 207.808 373.603L205.276 374.699C205.276 374.699 206.015 377.531 209.602 377.531C210.024 377.531 210.34 377.531 210.762 377.439H210.868C213.822 377.074 216.67 375.521 219.202 373.603C219.308 375.887 221.312 377.531 224.583 377.531C229.119 377.531 233.55 374.517 236.926 371.137C236.61 370.681 235.977 370.132 235.449 369.95L235.133 370.224C232.284 373.147 228.592 375.43 225.743 375.43C223.317 375.43 221.84 374.06 223.633 371.32L224.055 370.681C226.587 371.594 231.44 371.137 234.394 366.662L234.922 365.84C237.032 362.643 235.027 360.268 231.757 360.268C228.486 360.268 225.954 361.73 224.266 364.287L220.363 370.041H220.257L219.941 370.315C218.569 371.777 216.881 372.964 215.193 374.06C216.459 370.772 216.143 365.748 218.675 361.273L215.721 359.903C214.033 361.821 210.446 366.388 206.859 370.041L206.964 370.132L206.859 370.315C204.01 373.238 201.161 375.521 199.473 375.521C198.63 375.521 198.102 374.973 199.052 373.603L207.597 360.725H203.588L196.52 371.411C193.46 373.786 191.139 375.156 190.4 374.791C189.451 374.425 190.4 373.147 190.928 372.416L198.735 360.634H194.726L188.396 370.132C188.29 370.041 188.185 370.041 188.079 369.95L187.763 370.224C184.915 373.147 182.066 375.43 180.378 375.43C179.534 375.43 179.007 374.882 179.956 373.512L186.392 363.739H184.176C184.282 362.278 182.594 360.268 179.956 360.268C177.846 360.268 174.787 361.73 173.099 364.287L169.09 370.315C168.879 370.224 168.668 370.041 168.457 369.95L168.14 370.224C165.292 373.147 161.915 375.43 159.173 375.43C156.746 375.43 155.269 374.06 157.063 371.32L161.177 365.109C163.498 361.73 167.507 362.278 165.186 365.84L164.659 366.662H167.929L168.457 365.84C170.567 362.643 168.562 360.268 165.292 360.268C162.021 360.268 159.911 361.73 158.223 364.287L154.214 370.132C154.109 370.041 154.003 370.041 153.898 369.95L153.581 370.224C150.733 373.147 147.357 375.43 144.508 375.43C142.082 375.43 140.605 374.06 142.398 371.32L142.82 370.681C145.352 371.594 150.205 371.137 153.159 366.662L153.687 365.84C155.797 362.643 153.792 360.268 150.522 360.268C147.251 360.268 144.719 361.73 143.031 364.287L138.811 370.498C136.279 374.151 138.495 377.531 143.137 377.531C146.618 377.531 149.467 375.704 152.421 373.329C152.315 375.704 154.425 377.531 157.801 377.531C161.388 377.622 164.237 375.978 167.085 373.877ZM128.156 361.09L131.426 356.341C134.38 351.957 138.073 354.514 136.068 357.802C134.486 360.268 132.27 361.09 128.156 361.09ZM123.83 376.891C121.404 376.891 119.61 376.435 118.133 375.704C118.872 374.973 119.505 374.151 120.138 373.238L126.89 363.191L127.945 363.282C137.229 364.926 133.536 376.891 123.83 376.891ZM133.747 362.734C141.765 360.36 142.398 351.683 134.486 351.683C132.27 351.683 129.738 353.053 127.945 355.701L117.184 371.777C116.762 372.507 116.234 373.147 115.601 373.695C112.858 370.406 113.597 365.474 117.5 363.374L115.918 361.638C107.583 366.205 110.01 379.54 123.936 379.54C135.857 379.54 141.343 367.118 133.747 362.734Z" fill="white"/>
</g>
<defs>
<clipPath id="clip0_33515_805">
<rect width="483.19" height="321.502" fill="white"/>
</clipPath>
</defs>
</svg>
